<mxfile host="app.diagrams.net" modified="2023-11-02T23:16:12.908Z" agent="Mozilla/5.0 (Windows NT 10.0; Win64; x64) AppleWebKit/537.36 (KHTML, like Gecko) Chrome/118.0.0.0 Safari/537.36 Edg/118.0.2088.76" etag="YWMACOIQNgf9RhRdAYor" version="22.0.8" type="github">
  <diagram name="Page-1" id="MFkILY57AqbYTuTYySm0">
    <mxGraphModel dx="1492" dy="687" grid="1" gridSize="10" guides="1" tooltips="1" connect="1" arrows="1" fold="1" page="1" pageScale="1" pageWidth="850" pageHeight="1100" math="0" shadow="0">
      <root>
        <mxCell id="0" />
        <mxCell id="1" parent="0" />
        <mxCell id="oBUzUZn53Zp_ok-Vicc8-1" value="&lt;font face=&quot;Courier New&quot;&gt;PizzaFactory  &lt;/font&gt;" style="swimlane;fontStyle=0;childLayout=stackLayout;horizontal=1;startSize=30;horizontalStack=0;resizeParent=1;resizeParentMax=0;resizeLast=0;collapsible=1;marginBottom=0;whiteSpace=wrap;html=1;" vertex="1" parent="1">
          <mxGeometry x="160" y="80" width="400" height="60" as="geometry" />
        </mxCell>
        <mxCell id="oBUzUZn53Zp_ok-Vicc8-2" value="&lt;font face=&quot;Courier New&quot;&gt;+ createPizza(String, float, int, int): Pizza&lt;/font&gt;" style="text;strokeColor=none;fillColor=none;align=left;verticalAlign=middle;spacingLeft=4;spacingRight=4;overflow=hidden;points=[[0,0.5],[1,0.5]];portConstraint=eastwest;rotatable=0;whiteSpace=wrap;html=1;" vertex="1" parent="oBUzUZn53Zp_ok-Vicc8-1">
          <mxGeometry y="30" width="400" height="30" as="geometry" />
        </mxCell>
        <mxCell id="oBUzUZn53Zp_ok-Vicc8-10" value="&lt;font face=&quot;Courier New&quot;&gt;CalculationSingleton&lt;/font&gt;" style="swimlane;fontStyle=0;align=center;verticalAlign=top;childLayout=stackLayout;horizontal=1;startSize=55;horizontalStack=0;resizeParent=1;resizeParentMax=0;resizeLast=0;collapsible=0;marginBottom=0;html=1;whiteSpace=wrap;" vertex="1" parent="1">
          <mxGeometry x="160" y="200" width="400" height="343" as="geometry" />
        </mxCell>
        <mxCell id="oBUzUZn53Zp_ok-Vicc8-12" value="&lt;font face=&quot;Courier New&quot;&gt;- title: String&lt;/font&gt;" style="text;html=1;strokeColor=none;fillColor=none;align=left;verticalAlign=middle;spacingLeft=4;spacingRight=4;overflow=hidden;rotatable=0;points=[[0,0.5],[1,0.5]];portConstraint=eastwest;whiteSpace=wrap;" vertex="1" parent="oBUzUZn53Zp_ok-Vicc8-10">
          <mxGeometry y="55" width="400" height="20" as="geometry" />
        </mxCell>
        <mxCell id="oBUzUZn53Zp_ok-Vicc8-14" value="&lt;font face=&quot;Courier New&quot;&gt;- price: float&lt;/font&gt;" style="text;html=1;strokeColor=none;fillColor=none;align=left;verticalAlign=middle;spacingLeft=4;spacingRight=4;overflow=hidden;rotatable=0;points=[[0,0.5],[1,0.5]];portConstraint=eastwest;whiteSpace=wrap;" vertex="1" parent="oBUzUZn53Zp_ok-Vicc8-10">
          <mxGeometry y="75" width="400" height="20" as="geometry" />
        </mxCell>
        <mxCell id="oBUzUZn53Zp_ok-Vicc8-19" value="&lt;font face=&quot;Courier New&quot;&gt;- size: int&lt;/font&gt;" style="text;html=1;strokeColor=none;fillColor=none;align=left;verticalAlign=middle;spacingLeft=4;spacingRight=4;overflow=hidden;rotatable=0;points=[[0,0.5],[1,0.5]];portConstraint=eastwest;whiteSpace=wrap;" vertex="1" parent="oBUzUZn53Zp_ok-Vicc8-10">
          <mxGeometry y="95" width="400" height="20" as="geometry" />
        </mxCell>
        <mxCell id="oBUzUZn53Zp_ok-Vicc8-22" value="&lt;font face=&quot;Courier New&quot;&gt;- orderSize: int&lt;/font&gt;" style="text;html=1;strokeColor=none;fillColor=none;align=left;verticalAlign=middle;spacingLeft=4;spacingRight=4;overflow=hidden;rotatable=0;points=[[0,0.5],[1,0.5]];portConstraint=eastwest;whiteSpace=wrap;" vertex="1" parent="oBUzUZn53Zp_ok-Vicc8-10">
          <mxGeometry y="115" width="400" height="20" as="geometry" />
        </mxCell>
        <mxCell id="oBUzUZn53Zp_ok-Vicc8-15" value="" style="line;strokeWidth=1;fillColor=none;align=left;verticalAlign=middle;spacingTop=-1;spacingLeft=3;spacingRight=3;rotatable=0;labelPosition=right;points=[];portConstraint=eastwest;" vertex="1" parent="oBUzUZn53Zp_ok-Vicc8-10">
          <mxGeometry y="135" width="400" height="8" as="geometry" />
        </mxCell>
        <mxCell id="oBUzUZn53Zp_ok-Vicc8-17" value="&lt;font face=&quot;Courier New&quot;&gt;+ Pizza&lt;/font&gt;" style="text;html=1;strokeColor=none;fillColor=none;align=left;verticalAlign=middle;spacingLeft=4;spacingRight=4;overflow=hidden;rotatable=0;points=[[0,0.5],[1,0.5]];portConstraint=eastwest;whiteSpace=wrap;" vertex="1" parent="oBUzUZn53Zp_ok-Vicc8-10">
          <mxGeometry y="143" width="400" height="20" as="geometry" />
        </mxCell>
        <mxCell id="oBUzUZn53Zp_ok-Vicc8-24" value="&lt;font face=&quot;Courier New&quot;&gt;+ Pizza(String, float, int, int)&lt;/font&gt;" style="text;html=1;strokeColor=none;fillColor=none;align=left;verticalAlign=middle;spacingLeft=4;spacingRight=4;overflow=hidden;rotatable=0;points=[[0,0.5],[1,0.5]];portConstraint=eastwest;whiteSpace=wrap;" vertex="1" parent="oBUzUZn53Zp_ok-Vicc8-10">
          <mxGeometry y="163" width="400" height="20" as="geometry" />
        </mxCell>
        <mxCell id="oBUzUZn53Zp_ok-Vicc8-27" value="&lt;font face=&quot;Courier New&quot;&gt;+ getTitle() : String&lt;/font&gt;" style="text;html=1;strokeColor=none;fillColor=none;align=left;verticalAlign=middle;spacingLeft=4;spacingRight=4;overflow=hidden;rotatable=0;points=[[0,0.5],[1,0.5]];portConstraint=eastwest;whiteSpace=wrap;" vertex="1" parent="oBUzUZn53Zp_ok-Vicc8-10">
          <mxGeometry y="183" width="400" height="20" as="geometry" />
        </mxCell>
        <mxCell id="oBUzUZn53Zp_ok-Vicc8-31" value="&lt;font face=&quot;Courier New&quot;&gt;+ setTitle(String)&amp;nbsp;&lt;/font&gt;" style="text;html=1;strokeColor=none;fillColor=none;align=left;verticalAlign=middle;spacingLeft=4;spacingRight=4;overflow=hidden;rotatable=0;points=[[0,0.5],[1,0.5]];portConstraint=eastwest;whiteSpace=wrap;" vertex="1" parent="oBUzUZn53Zp_ok-Vicc8-10">
          <mxGeometry y="203" width="400" height="20" as="geometry" />
        </mxCell>
        <mxCell id="oBUzUZn53Zp_ok-Vicc8-33" value="&lt;font face=&quot;Courier New&quot;&gt;+ getPrice() : float&amp;nbsp;&lt;/font&gt;" style="text;html=1;strokeColor=none;fillColor=none;align=left;verticalAlign=middle;spacingLeft=4;spacingRight=4;overflow=hidden;rotatable=0;points=[[0,0.5],[1,0.5]];portConstraint=eastwest;whiteSpace=wrap;" vertex="1" parent="oBUzUZn53Zp_ok-Vicc8-10">
          <mxGeometry y="223" width="400" height="20" as="geometry" />
        </mxCell>
        <mxCell id="oBUzUZn53Zp_ok-Vicc8-36" value="&lt;font face=&quot;Courier New&quot;&gt;- calculatePriceBasedOnSize() : float&lt;/font&gt;" style="text;html=1;strokeColor=none;fillColor=none;align=left;verticalAlign=middle;spacingLeft=4;spacingRight=4;overflow=hidden;rotatable=0;points=[[0,0.5],[1,0.5]];portConstraint=eastwest;whiteSpace=wrap;" vertex="1" parent="oBUzUZn53Zp_ok-Vicc8-10">
          <mxGeometry y="243" width="400" height="20" as="geometry" />
        </mxCell>
        <mxCell id="oBUzUZn53Zp_ok-Vicc8-37" value="&lt;font face=&quot;Courier New&quot;&gt;+ setPrice(float)&lt;/font&gt;" style="text;html=1;strokeColor=none;fillColor=none;align=left;verticalAlign=middle;spacingLeft=4;spacingRight=4;overflow=hidden;rotatable=0;points=[[0,0.5],[1,0.5]];portConstraint=eastwest;whiteSpace=wrap;" vertex="1" parent="oBUzUZn53Zp_ok-Vicc8-10">
          <mxGeometry y="263" width="400" height="20" as="geometry" />
        </mxCell>
        <mxCell id="oBUzUZn53Zp_ok-Vicc8-38" value="&lt;font face=&quot;Courier New&quot;&gt;+ getOrderSize(): int&lt;/font&gt;" style="text;html=1;strokeColor=none;fillColor=none;align=left;verticalAlign=middle;spacingLeft=4;spacingRight=4;overflow=hidden;rotatable=0;points=[[0,0.5],[1,0.5]];portConstraint=eastwest;whiteSpace=wrap;" vertex="1" parent="oBUzUZn53Zp_ok-Vicc8-10">
          <mxGeometry y="283" width="400" height="20" as="geometry" />
        </mxCell>
        <mxCell id="oBUzUZn53Zp_ok-Vicc8-40" value="&lt;font face=&quot;Courier New&quot;&gt;+ setOrderSize(int):&amp;nbsp;&lt;/font&gt;" style="text;html=1;strokeColor=none;fillColor=none;align=left;verticalAlign=middle;spacingLeft=4;spacingRight=4;overflow=hidden;rotatable=0;points=[[0,0.5],[1,0.5]];portConstraint=eastwest;whiteSpace=wrap;" vertex="1" parent="oBUzUZn53Zp_ok-Vicc8-10">
          <mxGeometry y="303" width="400" height="20" as="geometry" />
        </mxCell>
        <mxCell id="oBUzUZn53Zp_ok-Vicc8-41" value="&lt;font face=&quot;Courier New&quot;&gt;+ toString() : String&lt;/font&gt;" style="text;html=1;strokeColor=none;fillColor=none;align=left;verticalAlign=middle;spacingLeft=4;spacingRight=4;overflow=hidden;rotatable=0;points=[[0,0.5],[1,0.5]];portConstraint=eastwest;whiteSpace=wrap;" vertex="1" parent="oBUzUZn53Zp_ok-Vicc8-10">
          <mxGeometry y="323" width="400" height="20" as="geometry" />
        </mxCell>
        <mxCell id="oBUzUZn53Zp_ok-Vicc8-42" style="edgeStyle=orthogonalEdgeStyle;rounded=0;orthogonalLoop=1;jettySize=auto;html=1;entryX=0.352;entryY=1.027;entryDx=0;entryDy=0;entryPerimeter=0;" edge="1" parent="1" source="oBUzUZn53Zp_ok-Vicc8-10" target="oBUzUZn53Zp_ok-Vicc8-2">
          <mxGeometry relative="1" as="geometry" />
        </mxCell>
      </root>
    </mxGraphModel>
  </diagram>
</mxfile>
